<?xml version="1.0" encoding="UTF-8"?>
<svg width="571px" height="612px" viewBox="0 0 571 612" version="1.1" xmlns="http://www.w3.org/2000/svg" xmlns:xlink="http://www.w3.org/1999/xlink">
    <!-- Generator: Sketch 53 (72520) - https://sketchapp.com -->
    <title>Group</title>
    <desc>Created with Sketch.</desc>
    <g id="Page-1" stroke="none" stroke-width="1" fill="none" fill-rule="evenodd">
        <g id="Group" transform="translate(1.000000, 1.000000)" fill-rule="nonzero" stroke="#979797">
            <g id="loop" transform="translate(283.000000, 0.000000)">
                <path d="M143.5,286 C220.183,286 286,221.772 286,143.5 C286,64.9 222.1,0 143.5,0 C64.9,0 0,64.9 0,143.5 C0,178.599 12.9,210.399 34.2,235 C37.205,233.006 55.585,216.153 87.599,205.3 C70.8,190 60,168.1 60,143.5 C60,97.899 97.899,61 143.5,61 C189.101,61 226,97.899 226,143.5 C226,188.15 190.161,226 143.5,226 C68.597,226 0,288.457 0,368.5 C0,447.1 64.9,512 143.5,512 C222.1,512 286,447.1 286,368.5 C286,333.399 273.1,301.599 251.8,277 C248.795,278.994 230.415,295.845 198.401,306.7 C215.2,322 226,343.9 226,368.5 C226,414.099 189.101,452 143.5,452 C97.899,452 60,414.099 60,368.5 C60,323.85 96.839,286 143.5,286 Z" id="Path"></path>
            </g>
            <g id="loop" transform="translate(0.000000, 98.000000)">
                <path d="M143.5,286 C220.183,286 286,221.772 286,143.5 C286,64.9 222.1,0 143.5,0 C64.9,0 0,64.9 0,143.5 C0,178.599 12.9,210.399 34.2,235 C37.205,233.006 55.585,216.153 87.599,205.3 C70.8,190 60,168.1 60,143.5 C60,97.899 97.899,61 143.5,61 C189.101,61 226,97.899 226,143.5 C226,188.15 190.161,226 143.5,226 C68.597,226 0,288.457 0,368.5 C0,447.1 64.9,512 143.5,512 C222.1,512 286,447.1 286,368.5 C286,333.399 273.1,301.599 251.8,277 C248.795,278.994 230.415,295.845 198.401,306.7 C215.2,322 226,343.9 226,368.5 C226,414.099 189.101,452 143.5,452 C97.899,452 60,414.099 60,368.5 C60,323.85 96.839,286 143.5,286 Z" id="Path"></path>
            </g>
        </g>
    </g>
</svg>