<svg xmlns="http://www.w3.org/2000/svg" viewBox="0 0 249.37 255.73"><defs><style>.cls-1,.cls-3{fill:none;}.cls-2{fill:none;}.cls-2,.cls-3,.cls-4{stroke:#000;stroke-linecap:round;stroke-linejoin:round;stroke-width:3px;}</style></defs><title>Face_Simple_FORAE</title><g id="Layer_20" data-name="Layer 20"><circle class="cls-1" cx="128.51" cy="135.11" r="118.86" transform="translate(-57.9 130.45) rotate(-45)"/><path d="M128.51,17.75A117.36,117.36,0,1,1,11.15,135.11,117.36,117.36,0,0,1,128.51,17.75m0-3a120.36,120.36,0,0,0-85.1,205.47A120.36,120.36,0,0,0,213.62,50a119.58,119.58,0,0,0-85.11-35.25Z"/></g><g id="Mole"><circle cx="117.45" cy="148.44" r="2.04"/></g><g id="L_Eyelid" data-name="L Eyelid"><path class="cls-2" d="M118.08,132.55s13-13.53,30.82-12.5c17.67,1,19.91,8.32,23,14.57"/></g><g id="L_Eye" data-name="L Eye"><path class="cls-1" d="M120.32,131a111.55,111.55,0,0,0,29.47,4.81c17,.56,20.38-4.27,20.38-4.27s-2.33-9.43-17.72-11.23S124.34,126,120.32,131Z"/><path class="cls-2" d="M120.32,131a111.55,111.55,0,0,0,29.47,4.81c17,.56,20.38-4.27,20.38-4.27s-2.33-9.43-17.72-11.23S124.34,126,120.32,131Z"/></g><g id="Nose"><path class="cls-3" d="M186,176.64s10.22,11,19.34,6,9.06-15.88,0-20.41a35.35,35.35,0,0,1-15.27-15.25"/></g><g id="R_Eyebrow" data-name="R Eyebrow"><path class="cls-2" d="M194.51,112.42s9.3-10.09,19.06-10.81a23.81,23.81,0,0,1,16.48,4.82"/></g><g id="R_Eyelid" data-name="R Eyelid"><path class="cls-2" d="M235.08,118.42s-9.25-7.53-20.52-5.7c-12.91,2.09-18.64,18.39-18.64,18.39"/></g><g id="Mouth"><path class="cls-2" d="M161.39,204c1.24,0,22.58,12,50.83-8.82"/><path class="cls-2" d="M209.89,192.84c1.24.83,3.4,2.57,3.68,5.25"/></g><g id="Bottom_Lip" data-name="Bottom Lip"><path class="cls-2" d="M179.36,216.22a24.38,24.38,0,0,0,15.15-2.71"/></g><g id="L_Eyebrow" data-name="L Eyebrow"><path class="cls-2" d="M118.9,110.32s17.63-11.91,30.8-2.83c15.53,10.72,26.51,7.34,26.51,7.34"/></g><g id="Hair"><path class="cls-1" d="M36.5,208.72a5.57,5.57,0,0,1-1.45-.2c-5.59-1.58-15.58-17.1-22.74-35.32C7,159.57-1.33,132.92,3.37,107.59a180.31,180.31,0,0,1,13.45-38c3.52-7.21,8-10.72,13.77-10.72a21.64,21.64,0,0,1,3.47.33,11,11,0,0,0,1.33.17c.37-.54,1.12-1.8,1.92-3.13,9.88-16.59,22.84-35.8,35.48-37.06.5,0,1-.08,1.42-.08a5.73,5.73,0,0,1,5.13,2.34,1.86,1.86,0,0,0,1.83,1,12.59,12.59,0,0,0,3.08-.54c6.53-1.81,14.06-4.38,22-7.1C123.36,9,142.72,2.36,155.93,2.36c9.19,0,9.31,5.89,9.4,10.19s.14,6.78,5.49,6.83c39.33.39,50.11,5.61,54.19,13.33,3.55,5.83-.94,9.32-4.22,11.88-1.91,1.49-3.72,2.9-3.84,4.38-.07.9.48,2,1.66,3.26a18.46,18.46,0,0,0,1.8,1.4c2.81,2,6.66,4.86,6.41,8.43-.14,2.09-1.69,3.94-4.59,5.51-13.78,7.42-40.93,16.27-92,16.27h0c-14.16,0-24-.76-24.08-.76-.47,0-1,0-1.43,0-3.35,0-5.69.72-7.16,2.2-2.86,2.91-2.78,9-2.67,16.75,0,3.87.11,8.25-.19,12.9C94,126.4,90.78,133,86,133c-2.72,0-5.42-2.16-8-6.43-.87-1.43-1.61-2.86-2.33-4.24-2.65-5.1-4.57-8.78-10-8.78a20.87,20.87,0,0,0-6,1.09C29.73,124,35.48,146,41.05,167.24c1.66,6.34,3.22,12.32,3.81,17.86,1,9.4-.52,17.62-4,21.44A5.9,5.9,0,0,1,36.5,208.72Z"/><path d="M155.93,3.86c15.11,0,1,16.88,14.88,17,38.19.38,49,5.28,52.87,12.53,5.94,9.74-14.62,10.75-6.17,19.84,2.28,2.31,13.64,7.81,4,13-25.35,13.65-65.67,16.09-91.27,16.09-14.26,0-24-.76-24-.76-.54,0-1.06,0-1.55,0-15.27,0-10.27,14.07-11.52,33.26-.7,10.74-3.56,16.69-7.26,16.69-2.06,0-4.37-1.83-6.72-5.71-4-6.63-5.58-13.74-13.64-13.74a22.06,22.06,0,0,0-6.49,1.16c-40.32,12.6-18.29,48.09-15.74,72.06,1.36,12.86-2.2,22-6.87,22a3.79,3.79,0,0,1-1-.15C26.27,204.48-3.16,151,4.84,107.86A177.52,177.52,0,0,1,18.16,70.29c4.08-8.36,8.79-9.88,12.43-9.88,2.09,0,3.83.51,4.88.51a1.21,1.21,0,0,0,.83-.23c1.48-1.29,20.23-38.34,36.64-40a11.83,11.83,0,0,1,1.27-.07c4.7,0,3.24,3.31,7,3.31a13.51,13.51,0,0,0,3.48-.6C105.55,17.57,137,3.86,155.93,3.86h0m0-3h0c-13.46,0-32.1,6.37-50.13,12.53-8,2.71-15.47,5.28-22,7.07a10.72,10.72,0,0,1-2.68.49,1.68,1.68,0,0,1-.34,0c-.08-.08-.23-.26-.34-.39a7.18,7.18,0,0,0-6.28-2.89c-.49,0-1,0-1.57.08C59.34,19.05,46.08,38.62,36,55.51l-1.39,2.31-.33-.06a23.27,23.27,0,0,0-3.71-.35C24.3,57.41,19.21,61.3,15.47,69A179.25,179.25,0,0,0,1.9,107.26v0C-2.88,133,5.5,160,10.91,173.75a142.09,142.09,0,0,0,12.24,24.42c4.5,6.94,8.37,10.91,11.49,11.79a7,7,0,0,0,1.86.26A7.29,7.29,0,0,0,42,207.54c3.71-4.12,5.37-12.78,4.33-22.6-.6-5.65-2.18-11.68-3.85-18.08-2.72-10.39-5.53-21.15-4-30.24,1.72-10,8.54-16.51,21.47-20.56a19.63,19.63,0,0,1,5.6-1c4.36,0,5.9,2.59,8.7,8,.73,1.4,1.48,2.85,2.38,4.32,2.87,4.76,6,7.16,9.28,7.16S95.11,132,96.22,115c.3-4.71.24-9.12.19-13-.1-7.38-.18-13.21,2.24-15.67,1.17-1.19,3.16-1.76,6.09-1.76l1.35,0c.76.06,10.23.77,24.16.77,51.36,0,78.76-9,92.69-16.45,3.39-1.83,5.2-4.09,5.38-6.72.3-4.4-4.11-7.62-7-9.75a19.66,19.66,0,0,1-1.62-1.25c-.95-1-1.25-1.74-1.23-2.08.07-.82,1.92-2.26,3.28-3.32,3.28-2.56,8.78-6.84,4.57-13.84-2.59-4.84-7.48-8.1-15.37-10.25-8.67-2.38-21.78-3.62-40.08-3.8-3.77,0-3.92-1-4-5.36-.09-4.08-.25-11.66-10.9-11.66Zm0,6h0Z"/></g><g id="Ear"><path class="cls-3" d="M49,149a23.82,23.82,0,0,1,0-47.64c13.15,0,23.63,10.26,23.63,28.18"/><path class="cls-2" d="M62.84,125a5.12,5.12,0,0,1-2.89.89,5.17,5.17,0,0,1-.11-10.34,14.51,14.51,0,0,0-26,8.86c0,4.72,2.27,10.87,10.43,12.79"/></g><g id="L_Pupil" data-name="L Pupil"><path class="cls-4" d="M140.12,128.81a10.44,10.44,0,0,0-3.86-7c-7.43,2.23-13,6.15-15.46,9.19A102.75,102.75,0,0,0,139,134.88,10.41,10.41,0,0,0,140.12,128.81Z"/></g><g id="R_Eye" data-name="R Eye"><path class="cls-1" d="M198.55,126.41A31.46,31.46,0,0,0,218,126c9.61-3.56,13.59-9.23,13.59-9.23a24.63,24.63,0,0,0-11.45-4.24C206.71,111.5,202,120.81,198.55,126.41Z"/><path class="cls-2" d="M198.55,126.41A31.46,31.46,0,0,0,218,126c9.61-3.56,13.59-9.23,13.59-9.23a24.63,24.63,0,0,0-11.45-4.24C206.71,111.5,202,120.81,198.55,126.41Z"/></g><g id="R_Pupil" data-name="R Pupil"><path class="cls-4" d="M199.25,126.28s5,2,13,.62c.82-1.57,2.1-3.47,1.76-6.1s-2.54-4.7-4.24-5.69C203.17,117.74,201.73,122.24,199.25,126.28Z"/></g></svg>
