<?xml version="1.0" encoding="UTF-8"?>
<svg width="109px" height="8px" viewBox="0 0 109 8" version="1.1" xmlns="http://www.w3.org/2000/svg" xmlns:xlink="http://www.w3.org/1999/xlink">
    <!-- Generator: Sketch 48.1 (47250) - http://www.bohemiancoding.com/sketch -->
    <title>caret</title>
    <desc>Created with Sketch.</desc>
    <defs></defs>
    <g id="Page-1" stroke="none" stroke-width="1" fill="none" fill-rule="evenodd">
        <g id="caret" transform="translate(-108.000000, 1.000000)" fill-rule="nonzero">
            <rect id="Rectangle-path" fill-opacity="0.01" fill="#FFFFFF" x="0" y="0" width="330" height="6"></rect>
            <polygon id="Shape" stroke="#000000" fill="#000000" stroke-linejoin="round" points="209 6 214 3 209 0"></polygon>
            <polygon id="Shape" stroke="#000000" fill="#000000" stroke-linejoin="round" points="198 6 203 3 198 0"></polygon>
            <polygon id="Shape" stroke="#000000" fill="#000000" stroke-linejoin="round" points="187 6 192 3 187 0"></polygon>
            <polygon id="Shape" stroke="#000000" fill="#000000" stroke-linejoin="round" points="176 6 181 3 176 0"></polygon>
            <polygon id="Shape" stroke="#000000" fill="#000000" stroke-linejoin="round" points="165 6 170 3 165 0"></polygon>
            <polygon id="Shape" stroke="#000000" fill="#000000" stroke-linejoin="round" points="154 6 159 3 154 0"></polygon>
            <polygon id="Shape" stroke="#000000" fill="#000000" stroke-linejoin="round" points="143 6 148 3 143 0"></polygon>
            <polygon id="Shape" stroke="#000000" fill="#000000" stroke-linejoin="round" points="132 6 137 3 132 0"></polygon>
            <polygon id="Shape" stroke="#000000" fill="#000000" stroke-linejoin="round" points="121 6 126 3 121 0"></polygon>
            <polygon id="Shape" stroke="#000000" fill="#000000" stroke-linejoin="round" points="110 6 115 3 110 0"></polygon>
        </g>
    </g>
</svg>
