<?xml version="1.0" encoding="UTF-8"?>
<svg width="1119px" height="1119px" viewBox="0 0 1119 1119" version="1.1" xmlns="http://www.w3.org/2000/svg" xmlns:xlink="http://www.w3.org/1999/xlink">
    <!-- Generator: Sketch 51.3 (57544) - http://www.bohemiancoding.com/sketch -->
    <title>caret circle_Small_v2</title>
    <desc>Created with Sketch.</desc>
    <defs></defs>
    <g id="Page-1" stroke="none" stroke-width="1" fill="none" fill-rule="evenodd">
        <g id="caret-circle_Small_v2" transform="translate(-170.000000, -73.000000)" fill="#000000" fill-rule="nonzero">
            <g id="Layer_2" transform="translate(170.000000, 73.000000)">
                <path d="M551.5,1103.2 L575.7,1118 C577.3,1119 579.4,1117.9 579.4,1116 L580.1,1087.6 C580.1,1085.7 578.1,1084.5 576.5,1085.4 L551.6,1099 C550,1099.8 549.9,1102.2 551.5,1103.2 Z" id="Shape"></path>
                <path d="M608.4,1101 L634,1113.2 C635.7,1114 637.6,1112.7 637.5,1110.8 L635.2,1082.5 C635,1080.6 632.9,1079.6 631.4,1080.7 L608,1096.8 C606.5,1097.9 606.7,1100.2 608.4,1101 Z" id="Shape"></path>
                <path d="M664.7,1092.9 L691.5,1102.3 C693.3,1102.9 695.1,1101.4 694.7,1099.5 L689.5,1071.6 C689.2,1069.7 686.9,1069 685.5,1070.2 L663.9,1088.7 C662.5,1090 662.9,1092.3 664.7,1092.9 Z" id="Shape"></path>
                <path d="M719.9,1079 L747.5,1085.6 C749.3,1086 750.9,1084.3 750.4,1082.5 L742.3,1055.3 C741.8,1053.5 739.5,1053 738.2,1054.3 L718.7,1074.9 C717.4,1076.3 718.1,1078.6 719.9,1079 Z" id="Shape"></path>
                <path d="M773.3,1059.4 L801.5,1063.1 C803.4,1063.3 804.8,1061.5 804.1,1059.7 L793.2,1033.5 C792.5,1031.8 790.1,1031.5 789,1033 L771.8,1055.6 C770.5,1057 771.4,1059.2 773.3,1059.4 Z" id="Shape"></path>
                <path d="M824.4,1034.3 L852.8,1035 C854.7,1035 855.9,1033 855,1031.4 L841.4,1006.5 C840.5,1004.8 838.1,1004.8 837.2,1006.4 L822.4,1030.6 C821.4,1032.2 822.5,1034.3 824.4,1034.3 Z" id="Shape"></path>
                <path d="M872.6,1004 L900.9,1001.7 C902.8,1001.5 903.8,999.4 902.7,997.9 L886.6,974.5 C885.5,973 883.2,973.1 882.4,974.8 L870.2,1000.4 C869.4,1002.2 870.7,1004.2 872.6,1004 Z" id="Shape"></path>
                <path d="M917.3,968.9 L945.2,963.7 C947.1,963.4 947.8,961.1 946.6,959.7 L928.1,938.1 C926.9,936.7 924.6,937.1 923.9,938.9 L914.5,965.7 C913.9,967.4 915.5,969.2 917.3,968.9 Z" id="Shape"></path>
                <path d="M958.2,929.2 L985.4,921.1 C987.2,920.6 987.7,918.3 986.4,917 L965.8,897.5 C964.4,896.2 962.2,896.9 961.7,898.7 L955.1,926.3 C954.6,928.1 956.4,929.8 958.2,929.2 Z" id="Shape"></path>
                <path d="M994.6,885.5 L1020.8,874.6 C1022.5,873.9 1022.8,871.5 1021.3,870.4 L998.7,853.2 C997.2,852.1 995,853 994.8,854.8 L991.1,883 C991,884.8 992.9,886.2 994.6,885.5 Z" id="Shape"></path>
                <path d="M1026.3,838.3 L1051.2,824.7 C1052.9,823.8 1052.9,821.4 1051.3,820.5 L1027.1,805.7 C1025.5,804.7 1023.4,805.8 1023.4,807.7 L1022.7,836.1 C1022.7,837.9 1024.7,839.2 1026.3,838.3 Z" id="Shape"></path>
                <path d="M1052.9,787.9 L1076.3,771.8 C1077.8,770.7 1077.7,768.4 1076,767.6 L1050.4,755.4 C1048.7,754.6 1046.8,755.9 1046.9,757.8 L1049.2,786.1 C1049.2,788 1051.3,789 1052.9,787.9 Z" id="Shape"></path>
                <path d="M1074.1,735.1 L1095.7,716.6 C1097.1,715.4 1096.7,713.1 1094.9,712.4 L1068.1,703 C1066.3,702.4 1064.5,703.9 1064.9,705.8 L1070.1,733.7 C1070.4,735.5 1072.6,736.3 1074.1,735.1 Z" id="Shape"></path>
                <path d="M1089.6,680.4 L1109.1,659.8 C1110.4,658.4 1109.7,656.2 1107.9,655.7 L1080.3,649.1 C1078.5,648.7 1076.9,650.4 1077.4,652.2 L1085.5,679.4 C1086,681.2 1088.3,681.7 1089.6,680.4 Z" id="Shape"></path>
                <path d="M1099.3,624.3 L1116.5,601.7 C1117.6,600.2 1116.7,598 1114.9,597.8 L1086.7,594.1 C1084.8,593.9 1083.4,595.7 1084.1,597.5 L1095,623.7 C1095.9,625.5 1098.2,625.8 1099.3,624.3 Z" id="Shape"></path>
                <path d="M1103.2,567.5 L1118,543.3 C1119,541.7 1117.9,539.6 1116,539.6 L1087.6,538.9 C1085.7,538.9 1084.5,540.9 1085.4,542.5 L1099,567.4 C1099.8,569 1102.2,569.1 1103.2,567.5 Z" id="Shape"></path>
                <path d="M1101,510.6 L1113.2,485 C1114,483.3 1112.7,481.4 1110.8,481.5 L1082.5,483.8 C1080.6,484 1079.6,486.1 1080.7,487.6 L1096.8,511 C1097.9,512.5 1100.2,512.3 1101,510.6 Z" id="Shape"></path>
                <path d="M1092.9,454.3 L1102.3,427.5 C1102.9,425.7 1101.4,423.9 1099.5,424.3 L1071.6,429.5 C1069.7,429.8 1069,432.1 1070.2,433.5 L1088.7,455.1 C1090,456.5 1092.3,456.1 1092.9,454.3 Z" id="Shape"></path>
                <path d="M1079,399.1 L1085.6,371.5 C1086,369.7 1084.3,368.1 1082.5,368.6 L1055.3,376.7 C1053.5,377.2 1053,379.5 1054.3,380.8 L1074.9,400.3 C1076.3,401.6 1078.6,400.9 1079,399.1 Z" id="Shape"></path>
                <path d="M1059.4,345.7 L1063.1,317.5 C1063.3,315.6 1061.5,314.2 1059.7,314.9 L1033.5,325.8 C1031.8,326.5 1031.5,328.9 1033,330 L1055.6,347.2 C1057,348.5 1059.2,347.6 1059.4,345.7 Z" id="Shape"></path>
                <path d="M1034.3,294.6 L1035,266.2 C1035,264.3 1033,263.1 1031.4,264 L1006.5,277.6 C1004.8,278.5 1004.8,280.9 1006.4,281.8 L1030.6,296.6 C1032.2,297.6 1034.3,296.5 1034.3,294.6 Z" id="Shape"></path>
                <path d="M1004,246.4 L1001.7,218.1 C1001.5,216.2 999.4,215.2 997.9,216.3 L974.5,232.4 C973,233.5 973.1,235.8 974.8,236.6 L1000.4,248.8 C1002.2,249.6 1004.2,248.3 1004,246.4 Z" id="Shape"></path>
                <path d="M968.9,201.7 L963.7,173.8 C963.4,171.9 961.1,171.2 959.7,172.4 L938.1,190.9 C936.7,192.1 937.1,194.4 938.9,195.1 L965.7,204.5 C967.4,205.1 969.2,203.5 968.9,201.7 Z" id="Shape"></path>
                <path d="M929.2,160.8 L921.1,133.6 C920.6,131.8 918.3,131.3 917,132.6 L897.5,153.2 C896.2,154.6 896.9,156.8 898.7,157.3 L926.3,163.9 C928.1,164.4 929.8,162.6 929.2,160.8 Z" id="Shape"></path>
                <path d="M885.5,124.4 L874.6,98.2 C873.9,96.5 871.5,96.2 870.4,97.7 L853.2,120.3 C852.1,121.8 853,124 854.8,124.2 L883,127.9 C884.8,128 886.2,126.1 885.5,124.4 Z" id="Shape"></path>
                <path d="M838.3,92.7 L824.7,67.8 C823.8,66.1 821.4,66.1 820.5,67.7 L805.7,91.9 C804.7,93.5 805.8,95.6 807.7,95.6 L836.1,96.3 C837.9,96.3 839.2,94.3 838.3,92.7 Z" id="Shape"></path>
                <path d="M787.9,66.1 L771.8,42.7 C770.7,41.2 768.4,41.3 767.6,43 L755.4,68.6 C754.6,70.3 755.9,72.2 757.8,72.1 L786.1,69.8 C788,69.8 789,67.7 787.9,66.1 Z" id="Shape"></path>
                <path d="M735.1,44.9 L716.6,23.3 C715.4,21.9 713.1,22.3 712.4,24.1 L703,50.9 C702.4,52.7 703.9,54.5 705.8,54.1 L733.7,48.9 C735.5,48.6 736.3,46.4 735.1,44.9 Z" id="Shape"></path>
                <path d="M680.4,29.4 L659.8,9.9 C658.4,8.6 656.2,9.3 655.7,11.1 L649.1,38.7 C648.7,40.5 650.4,42.1 652.2,41.6 L679.4,33.5 C681.2,33 681.7,30.7 680.4,29.4 Z" id="Shape"></path>
                <path d="M624.3,19.7 L601.7,2.5 C600.2,1.4 598,2.3 597.8,4.1 L594.1,32.3 C593.9,34.2 595.7,35.6 597.5,34.9 L623.7,24 C625.5,23.1 625.8,20.8 624.3,19.7 Z" id="Shape"></path>
                <path d="M567.5,15.8 L543.3,1 C541.7,-1.11022302e-15 539.6,1.1 539.6,3 L538.9,31.4 C538.9,33.3 540.9,34.5 542.5,33.6 L567.4,20 C569,19.2 569.1,16.8 567.5,15.8 Z" id="Shape"></path>
                <path d="M510.6,18 L485,5.8 C483.3,5 481.4,6.3 481.5,8.2 L483.8,36.5 C484,38.4 486.1,39.4 487.6,38.3 L511,22.2 C512.5,21.1 512.3,18.8 510.6,18 Z" id="Shape"></path>
                <path d="M454.3,26.1 L427.5,16.7 C425.7,16.1 423.9,17.6 424.3,19.5 L429.5,47.4 C429.8,49.3 432.1,50 433.5,48.8 L455.1,30.3 C456.5,29 456.1,26.7 454.3,26.1 Z" id="Shape"></path>
                <path d="M399.1,40 L371.5,33.4 C369.7,33 368.1,34.7 368.6,36.5 L376.7,63.7 C377.2,65.5 379.5,66 380.8,64.7 L400.3,44.1 C401.6,42.7 400.9,40.4 399.1,40 Z" id="Shape"></path>
                <path d="M345.7,59.6 L317.5,55.9 C315.6,55.7 314.2,57.5 314.9,59.3 L325.8,85.5 C326.5,87.2 328.9,87.5 330,86 L347.2,63.4 C348.5,62 347.6,59.8 345.7,59.6 Z" id="Shape"></path>
                <path d="M294.6,84.7 L266.2,84 C264.3,84 263.1,86 264,87.6 L277.6,112.5 C278.5,114.2 280.9,114.2 281.8,112.6 L296.6,88.4 C297.6,86.8 296.5,84.7 294.6,84.7 Z" id="Shape"></path>
                <path d="M246.4,115 L218.1,117.3 C216.2,117.5 215.2,119.6 216.3,121.1 L232.4,144.5 C233.5,146 235.8,145.9 236.6,144.2 L248.8,118.6 C249.6,116.8 248.3,114.8 246.4,115 Z" id="Shape"></path>
                <path d="M201.7,150.1 L173.8,155.3 C171.9,155.6 171.2,157.9 172.4,159.3 L190.9,180.9 C192.1,182.3 194.4,181.9 195.1,180.1 L204.5,153.3 C205.1,151.6 203.5,149.8 201.7,150.1 Z" id="Shape"></path>
                <path d="M160.8,189.8 L133.6,197.9 C131.8,198.4 131.3,200.7 132.6,202 L153.2,221.5 C154.6,222.8 156.8,222.1 157.3,220.3 L163.9,192.7 C164.4,190.9 162.6,189.2 160.8,189.8 Z" id="Shape"></path>
                <path d="M124.4,233.5 L98.2,244.4 C96.5,245.1 96.2,247.5 97.7,248.6 L120.3,265.8 C121.8,266.9 124,266 124.2,264.2 L127.9,236 C128,234.2 126.1,232.8 124.4,233.5 Z" id="Shape"></path>
                <path d="M92.7,280.7 L67.8,294.3 C66.1,295.2 66.1,297.6 67.7,298.5 L91.9,313.3 C93.5,314.3 95.6,313.2 95.6,311.3 L96.3,282.9 C96.3,281.1 94.3,279.8 92.7,280.7 Z" id="Shape"></path>
                <path d="M66.1,331.1 L42.7,347.2 C41.2,348.3 41.3,350.6 43,351.4 L68.6,363.6 C70.3,364.4 72.2,363.1 72.1,361.2 L69.8,332.9 C69.8,331 67.7,330 66.1,331.1 Z" id="Shape"></path>
                <path d="M44.9,383.9 L23.3,402.4 C21.9,403.6 22.3,405.9 24.1,406.6 L50.9,416 C52.7,416.6 54.5,415.1 54.1,413.2 L48.9,385.3 C48.6,383.5 46.4,382.7 44.9,383.9 Z" id="Shape"></path>
                <path d="M29.4,438.6 L9.9,459.2 C8.6,460.6 9.3,462.8 11.1,463.3 L38.7,469.9 C40.5,470.3 42.1,468.6 41.6,466.8 L33.5,439.6 C33,437.8 30.7,437.3 29.4,438.6 Z" id="Shape"></path>
                <path d="M19.7,494.7 L2.5,517.3 C1.4,518.8 2.3,521 4.1,521.2 L32.3,524.9 C34.2,525.1 35.6,523.3 34.9,521.5 L24,495.3 C23.1,493.5 20.8,493.2 19.7,494.7 Z" id="Shape"></path>
                <path d="M15.8,551.5 L1,575.7 C-1.11022302e-15,577.3 1.1,579.4 3,579.4 L31.4,580.1 C33.3,580.1 34.5,578.1 33.6,576.5 L20,551.6 C19.2,550 16.8,549.9 15.8,551.5 Z" id="Shape"></path>
                <path d="M18,608.4 L5.8,634 C5,635.7 6.3,637.6 8.2,637.5 L36.5,635.2 C38.4,635 39.4,632.9 38.3,631.4 L22.2,608 C21.1,606.5 18.8,606.7 18,608.4 Z" id="Shape"></path>
                <path d="M26.1,664.7 L16.7,691.5 C16.1,693.3 17.6,695.1 19.5,694.7 L47.4,689.5 C49.3,689.2 50,686.9 48.8,685.5 L30.3,663.9 C29,662.5 26.7,662.9 26.1,664.7 Z" id="Shape"></path>
                <path d="M40,719.9 L33.4,747.5 C33,749.3 34.7,750.9 36.5,750.4 L63.7,742.3 C65.5,741.8 66,739.5 64.7,738.2 L44,718.7 C42.7,717.4 40.4,718.1 40,719.9 Z" id="Shape"></path>
                <path d="M59.6,773.3 L55.9,801.5 C55.7,803.4 57.5,804.8 59.3,804.1 L85.5,793.2 C87.2,792.5 87.5,790.1 86,789 L63.4,771.8 C62,770.5 59.8,771.4 59.6,773.3 Z" id="Shape"></path>
                <path d="M84.7,824.4 L84,852.8 C84,854.7 86,855.9 87.6,855 L112.5,841.4 C114.2,840.5 114.2,838.1 112.6,837.2 L88.4,822.4 C86.8,821.4 84.7,822.5 84.7,824.4 Z" id="Shape"></path>
                <path d="M115,872.6 L117.3,900.9 C117.5,902.8 119.6,903.8 121.1,902.7 L144.5,886.6 C146,885.5 145.9,883.2 144.2,882.4 L118.6,870.2 C116.8,869.4 114.8,870.7 115,872.6 Z" id="Shape"></path>
                <path d="M150.1,917.3 L155.3,945.2 C155.6,947.1 157.9,947.8 159.3,946.6 L180.9,928.1 C182.3,926.9 181.9,924.6 180.1,923.9 L153.3,914.5 C151.6,913.9 149.8,915.5 150.1,917.3 Z" id="Shape"></path>
                <path d="M189.8,958.2 L197.9,985.4 C198.4,987.2 200.7,987.7 202,986.4 L221.5,965.8 C222.8,964.4 222.1,962.2 220.3,961.7 L192.7,955.1 C190.9,954.6 189.2,956.4 189.8,958.2 Z" id="Shape"></path>
                <path d="M233.5,994.6 L244.4,1020.8 C245.1,1022.5 247.5,1022.8 248.6,1021.3 L265.8,998.7 C266.9,997.2 266,995 264.2,994.8 L236,991.1 C234.2,991 232.8,992.9 233.5,994.6 Z" id="Shape"></path>
                <path d="M280.7,1026.3 L294.3,1051.2 C295.2,1052.9 297.6,1052.9 298.5,1051.3 L313.3,1027.1 C314.3,1025.5 313.2,1023.4 311.3,1023.4 L282.9,1022.7 C281.1,1022.7 279.8,1024.7 280.7,1026.3 Z" id="Shape"></path>
                <path d="M331.1,1052.9 L347.2,1076.3 C348.3,1077.8 350.6,1077.7 351.4,1076 L363.6,1050.4 C364.4,1048.7 363.1,1046.8 361.2,1046.9 L332.9,1049.2 C331,1049.2 330,1051.3 331.1,1052.9 Z" id="Shape"></path>
                <path d="M383.9,1074.1 L402.4,1095.7 C403.6,1097.1 405.9,1096.7 406.6,1094.9 L416,1068.1 C416.6,1066.3 415.1,1064.5 413.2,1064.9 L385.3,1070.1 C383.5,1070.4 382.7,1072.6 383.9,1074.1 Z" id="Shape"></path>
                <path d="M438.6,1089.6 L459.2,1109.1 C460.6,1110.4 462.8,1109.7 463.3,1107.9 L469.9,1080.3 C470.3,1078.5 468.6,1076.9 466.8,1077.4 L439.6,1085.5 C437.8,1086 437.3,1088.3 438.6,1089.6 Z" id="Shape"></path>
                <path d="M494.7,1099.3 L517.3,1116.5 C518.8,1117.6 521,1116.7 521.2,1114.9 L524.9,1086.7 C525.1,1084.8 523.3,1083.4 521.5,1084.1 L495.3,1095 C493.5,1095.9 493.2,1098.2 494.7,1099.3 Z" id="Shape"></path>
            </g>
        </g>
    </g>
</svg>
