<?xml version="1.0" encoding="UTF-8"?>
<svg width="13px" height="10px" viewBox="0 0 13 10" version="1.1" xmlns="http://www.w3.org/2000/svg" xmlns:xlink="http://www.w3.org/1999/xlink">
    <!-- Generator: Sketch 51.3 (57544) - http://www.bohemiancoding.com/sketch -->
    <title>Shape</title>
    <desc>Created with Sketch.</desc>
    <defs></defs>
    <g id="Page-1" stroke="none" stroke-width="1" fill="none" fill-rule="evenodd">
        <g id="check" fill="#F7FFFD" fill-rule="nonzero">
            <path d="M12.9924526,0.97837968 C13.0067947,0.769253641 13.0006964,0.629344579 12.9741577,0.558652499 C12.9478444,0.488561091 12.9051562,0.405635823 12.8460931,0.309876705 C12.4147901,-0.103292235 11.7401646,-0.103292235 11.3074895,0.309876705 L4.63715817,6.68710651 L1.99719982,4.80052029 C1.75955957,4.57311246 1.19590871,4.49730461 0.589582014,4.64578978 C0.504712263,4.66657379 0.416250899,4.71815063 0.324197924,4.80052029 C-0.0867735157,5.20318465 -0.123182531,5.88875046 0.308120436,6.30148216 L3.85001882,9.69077915 C4.28177916,10.1030736 4.98842082,10.1030736 5.42018118,9.69077915 L12.4070148,2.04518626 C12.6448489,1.78285677 12.9924526,1.11828874 12.9924526,0.97837968 Z" id="Shape"></path>
        </g>
    </g>
</svg>
