<?xml version="1.0" encoding="UTF-8"?>
<svg width="33px" height="33px" viewBox="0 0 33 33" version="1.1" xmlns="http://www.w3.org/2000/svg" xmlns:xlink="http://www.w3.org/1999/xlink">
    <!-- Generator: Sketch 48.1 (47250) - http://www.bohemiancoding.com/sketch -->
    <title>settings-work-tool</title>
    <desc>Created with Sketch.</desc>
    <defs></defs>
    <g id="Page-1" stroke="none" stroke-width="1" fill="none" fill-rule="evenodd">
        <g id="settings-work-tool" fill="#000000" fill-rule="nonzero">
            <path d="M32.8967397,14.6678675 C32.8445553,14.2039898 32.3036787,13.8554062 31.8359832,13.8554062 C30.3238618,13.8554062 28.9820459,12.9675556 28.4193132,11.5944628 C27.8444247,10.1880956 28.2151185,8.54794784 29.3420572,7.51422989 C29.6967887,7.18995752 29.739887,6.64712975 29.4423742,6.27006029 C28.668448,5.28729768 27.7888022,4.39956983 26.8283626,3.6302057 C26.4522661,3.32840279 25.9004615,3.3703949 25.5743393,3.73150245 C24.5908158,4.82071873 22.824157,5.22553736 21.4590116,4.65594269 C20.0383665,4.05835328 19.1425128,2.61883443 19.2301827,1.07359862 C19.2590376,0.588233729 18.9043061,0.166225347 18.4204027,0.109867521 C17.1878672,-0.0326846269 15.9445264,-0.0371048485 14.7083073,0.100044806 C14.2299293,0.152841898 13.8751978,0.564904781 13.8912829,1.04413048 C13.9450636,2.57414108 13.0384047,3.98848922 11.63188,4.56459144 C10.2830653,5.11552295 8.52880797,4.71414227 7.54724901,3.63462592 C7.22284586,3.27904365 6.68000471,3.23533257 6.30206645,3.52989123 C5.31314027,4.30576291 4.41372579,5.19422746 3.63267794,6.16888633 C3.32804349,6.54779755 3.37286073,7.09701009 3.73115308,7.42300143 C4.87957952,8.46298135 5.25039614,10.1173721 4.6537743,11.5399467 C4.08416559,12.8962181 2.67579916,13.7703169 1.06348358,13.7703169 C0.540288347,13.7534955 0.167629923,14.1046576 0.1104112,14.5803225 C-0.034722987,15.8199491 -0.0364420045,17.0830275 0.103289556,18.3327223 C0.155105653,18.7985646 0.712435665,19.1440786 1.18528825,19.1440786 C2.62214126,19.1073662 4.00165275,19.9969358 4.5803477,21.4051447 C5.15720083,22.8115119 4.78638421,24.4506774 3.65772648,25.4852549 C3.30471397,25.8095272 3.25989673,26.3514955 3.55740953,26.728565 C4.32409131,27.7050656 5.20385988,28.593653 6.16773752,29.3694018 C6.54579857,29.6740288 7.09588415,29.6310544 7.42360254,29.2699469 C8.4108097,28.1780293 10.1773457,27.7739474 11.5370885,28.3446471 C12.9612944,28.9403948 13.8571481,30.3797908 13.7694782,31.9258861 C13.7408689,32.4114966 14.0973194,32.8342417 14.5792582,32.88974 C15.2097693,32.9632876 15.8440867,33 16.4801231,33 C17.0838666,33 17.6877329,32.9668483 18.2914764,32.8996855 C18.7699772,32.8468884 19.1244631,32.4348256 19.108378,31.9547404 C19.0530011,30.4255892 19.9612563,29.0112411 21.3659391,28.4361212 C22.7238401,27.8815061 24.4707302,28.2874298 25.4524119,29.3658411 C25.7786569,29.7206867 26.3176916,29.7635383 26.6977172,29.4699619 C27.6848016,28.695932 28.5823743,27.8082041 29.3671058,26.830844 C29.6716174,26.4527923 29.628642,25.9027202 29.2685078,25.5768517 C28.1200814,24.5368718 27.747423,22.8822355 28.3440448,21.4606431 C28.9049356,20.122421 30.2609948,19.2238881 31.7195811,19.2238881 L31.9236531,19.2291678 C32.3967512,19.2675992 32.832031,18.9031765 32.8893725,18.4202673 C33.0347523,17.1795356 33.0364713,15.9175624 32.8967397,14.6678675 Z M16.5261683,22.038587 C13.4911202,22.038587 11.0223656,19.5698933 11.0223656,16.53492 C11.0223656,13.5000695 13.4911202,11.0312529 16.5261683,11.0312529 C19.5610936,11.0312529 22.0298482,13.5000695 22.0298482,16.53492 C22.0298482,19.5698933 19.5610936,22.038587 16.5261683,22.038587 Z" id="Shape"></path>
        </g>
    </g>
</svg>
