<?xml version="1.0" encoding="UTF-8"?>
<svg width="100px" height="100px" viewBox="0 0 100 100" version="1.1" xmlns="http://www.w3.org/2000/svg" xmlns:xlink="http://www.w3.org/1999/xlink">
    <!-- Generator: Sketch 53 (72520) - https://sketchapp.com -->
    <title>graph-paper</title>
    <desc>Created with Sketch.</desc>
    <g id="Page-1" stroke="none" stroke-width="1" fill="none" fill-rule="evenodd">
        <g id="graph-paper" fill="#000000" fill-rule="nonzero">
            <path d="M96,95 L100,95 L100,96 L96,96 L96,100 L95,100 L95,96 L86,96 L86,100 L85,100 L85,96 L76,96 L76,100 L75,100 L75,96 L66,96 L66,100 L65,100 L65,96 L56,96 L56,100 L55,100 L55,96 L46,96 L46,100 L45,100 L45,96 L36,96 L36,100 L35,100 L35,96 L26,96 L26,100 L25,100 L25,96 L16,96 L16,100 L15,100 L15,96 L0,96 L0,95 L15,95 L15,86 L0,86 L0,85 L15,85 L15,76 L0,76 L0,75 L15,75 L15,66 L0,66 L0,65 L15,65 L15,56 L0,56 L0,55 L15,55 L15,46 L0,46 L0,45 L15,45 L15,36 L0,36 L0,35 L15,35 L15,26 L0,26 L0,25 L15,25 L15,16 L0,16 L0,15 L15,15 L15,0 L16,0 L16,15 L25,15 L25,0 L26,0 L26,15 L35,15 L35,0 L36,0 L36,15 L45,15 L45,0 L46,0 L46,15 L55,15 L55,0 L56,0 L56,15 L65,15 L65,0 L66,0 L66,15 L75,15 L75,0 L76,0 L76,15 L85,15 L85,0 L86,0 L86,15 L95,15 L95,0 L96,0 L96,15 L100,15 L100,16 L96,16 L96,25 L100,25 L100,26 L96,26 L96,35 L100,35 L100,36 L96,36 L96,45 L100,45 L100,46 L96,46 L96,55 L100,55 L100,56 L96,56 L96,65 L100,65 L100,66 L96,66 L96,75 L100,75 L100,76 L96,76 L96,85 L100,85 L100,86 L96,86 L96,95 Z M95,95 L95,86 L86,86 L86,95 L95,95 Z M85,95 L85,86 L76,86 L76,95 L85,95 Z M75,95 L75,86 L66,86 L66,95 L75,95 Z M65,95 L65,86 L56,86 L56,95 L65,95 Z M55,95 L55,86 L46,86 L46,95 L55,95 Z M45,95 L45,86 L36,86 L36,95 L45,95 Z M35,95 L35,86 L26,86 L26,95 L35,95 Z M25,95 L25,86 L16,86 L16,95 L25,95 Z M16,85 L25,85 L25,76 L16,76 L16,85 Z M26,85 L35,85 L35,76 L26,76 L26,85 Z M36,85 L45,85 L45,76 L36,76 L36,85 Z M46,85 L55,85 L55,76 L46,76 L46,85 Z M56,85 L65,85 L65,76 L56,76 L56,85 Z M66,85 L75,85 L75,76 L66,76 L66,85 Z M76,85 L85,85 L85,76 L76,76 L76,85 Z M86,85 L95,85 L95,76 L86,76 L86,85 Z M95,75 L95,66 L86,66 L86,75 L95,75 Z M85,75 L85,66 L76,66 L76,75 L85,75 Z M75,75 L75,66 L66,66 L66,75 L75,75 Z M65,75 L65,66 L56,66 L56,75 L65,75 Z M55,75 L55,66 L46,66 L46,75 L55,75 Z M45,75 L45,66 L36,66 L36,75 L45,75 Z M35,75 L35,66 L26,66 L26,75 L35,75 Z M25,75 L25,66 L16,66 L16,75 L25,75 Z M16,65 L25,65 L25,56 L16,56 L16,65 Z M26,65 L35,65 L35,56 L26,56 L26,65 Z M36,65 L45,65 L45,56 L36,56 L36,65 Z M46,65 L55,65 L55,56 L46,56 L46,65 Z M56,65 L65,65 L65,56 L56,56 L56,65 Z M66,65 L75,65 L75,56 L66,56 L66,65 Z M76,65 L85,65 L85,56 L76,56 L76,65 Z M86,65 L95,65 L95,56 L86,56 L86,65 Z M95,55 L95,46 L86,46 L86,55 L95,55 Z M85,55 L85,46 L76,46 L76,55 L85,55 Z M75,55 L75,46 L66,46 L66,55 L75,55 Z M65,55 L65,46 L56,46 L56,55 L65,55 Z M55,55 L55,46 L46,46 L46,55 L55,55 Z M45,55 L45,46 L36,46 L36,55 L45,55 Z M35,55 L35,46 L26,46 L26,55 L35,55 Z M25,55 L25,46 L16,46 L16,55 L25,55 Z M16,45 L25,45 L25,36 L16,36 L16,45 Z M26,45 L35,45 L35,36 L26,36 L26,45 Z M36,45 L45,45 L45,36 L36,36 L36,45 Z M46,45 L55,45 L55,36 L46,36 L46,45 Z M56,45 L65,45 L65,36 L56,36 L56,45 Z M66,45 L75,45 L75,36 L66,36 L66,45 Z M76,45 L85,45 L85,36 L76,36 L76,45 Z M86,45 L95,45 L95,36 L86,36 L86,45 Z M95,35 L95,26 L86,26 L86,35 L95,35 Z M85,35 L85,26 L76,26 L76,35 L85,35 Z M75,35 L75,26 L66,26 L66,35 L75,35 Z M65,35 L65,26 L56,26 L56,35 L65,35 Z M55,35 L55,26 L46,26 L46,35 L55,35 Z M45,35 L45,26 L36,26 L36,35 L45,35 Z M35,35 L35,26 L26,26 L26,35 L35,35 Z M25,35 L25,26 L16,26 L16,35 L25,35 Z M16,25 L25,25 L25,16 L16,16 L16,25 Z M26,25 L35,25 L35,16 L26,16 L26,25 Z M36,25 L45,25 L45,16 L36,16 L36,25 Z M46,25 L55,25 L55,16 L46,16 L46,25 Z M56,25 L65,25 L65,16 L56,16 L56,25 Z M66,25 L75,25 L75,16 L66,16 L66,25 Z M76,25 L85,25 L85,16 L76,16 L76,25 Z M86,25 L95,25 L95,16 L86,16 L86,25 Z" id="Shape" opacity="0.5"></path>
            <polygon id="Path" points="6 5 6 0 5 0 5 5 0 5 0 6 5 6 5 100 6 100 6 6 100 6 100 5"></polygon>
        </g>
    </g>
</svg>